<?xml version="1.0" encoding="UTF-8"?>
<!DOCTYPE svg PUBLIC "-//W3C//DTD SVG 1.1//EN" "http://www.w3.org/Graphics/SVG/1.1/DTD/svg11.dtd">
<!-- Creator: CorelDRAW 2019 (64-Bit) -->
<svg xmlns="http://www.w3.org/2000/svg" xml:space="preserve" width="297mm" height="210mm" version="1.1" style="shape-rendering:geometricPrecision; text-rendering:geometricPrecision; image-rendering:optimizeQuality; fill-rule:evenodd; clip-rule:evenodd"
viewBox="0 0 29700 21000"
 xmlns:xlink="http://www.w3.org/1999/xlink"
 xmlns:xodm="http://www.corel.com/coreldraw/odm/2003">
 <defs>
  <style type="text/css">
   <![CDATA[
    .str0 {stroke:#F56B22;stroke-width:282.22;stroke-miterlimit:22.9256}
    .str1 {stroke:#F56B22;stroke-width:423.33;stroke-miterlimit:22.9256}
    .str2 {stroke:#F56B22;stroke-width:352.78;stroke-miterlimit:22.9256}
    .fil0 {fill:none}
    .fil4 {fill:#FEFEFE}
    .fil2 {fill:#F56B22}
    .fil3 {fill:#F56B22}
    .fil1 {fill:white}
   ]]>
  </style>
 </defs>
 <g id="Layer_x0020_1">
  <metadata id="CorelCorpID_0Corel-Layer"/>
  <polyline class="fil0 str0" points="10245.01,19310.23 7943.75,16897.78 8500.8,15326.71 5592.79,12357.34 "/>
  <polyline class="fil0 str0" points="7943.75,16897.78 6519.75,15882.47 7609.06,12559.04 9401.85,12603.8 "/>
  <line class="fil0 str0" x1="7609.06" y1="12559.04" x2="7313.27" y2= "9243.39" />
  <polyline class="fil0 str0" points="6103.6,10961.72 9284.92,10124.11 10686.94,11504.88 "/>
  <line class="fil0 str0" x1="9284.92" y1="10124.11" x2="9988.48" y2= "6525.66" />
  <polyline class="fil0 str0" points="8482.54,7867.77 11082.28,8378.18 11600.24,11132.02 "/>
  <polyline class="fil0 str0" points="12374.97,10999.53 12874.61,9894.09 14091.23,11097.82 "/>
  <line class="fil0 str0" x1="11082.28" y1="8378.18" x2="13700.81" y2= "4029.84" />
  <polyline class="fil0 str0" points="12874.61,9894.09 13069.24,6482.6 11015.84,5217.48 "/>
  <line class="fil0 str0" x1="13069.24" y1="6482.6" x2="14081.36" y2= "5992.87" />
  <line class="fil0 str0" x1="11476.42" y1="3989.38" x2="12378.99" y2= "3743.34" />
  <line class="fil0 str0" x1="15102.2" y1="7774.33" x2="16985.71" y2= "6021.53" />
  <polyline class="fil0 str0" points="15544.56,5769.64 16687.36,7879.49 17789.24,8928.72 "/>
  <line class="fil0 str0" x1="16687.36" y1="7879.49" x2="14929.95" y2= "10054.94" />
  <line class="fil0 str0" x1="14930.26" y1="8572.14" x2="17160.39" y2= "11329.89" />
  <line class="fil0 str0" x1="19127.33" y1="12353.68" x2="19900.18" y2= "11337.52" />
  <line class="fil0 str0" x1="18984.17" y1="13007.28" x2="19262.21" y2= "14682.42" />
  <line class="fil0 str0" x1="17638.22" y1="15713.22" x2="19112.65" y2= "15100.37" />
  <polyline class="fil0 str0" points="15080.75,19430.5 16363.7,18378.19 17585.44,15797.69 16182.14,11843.43 15320.87,12108.42 "/>
  <line class="fil0 str0" x1="16182.14" y1="11843.43" x2="17489.23" y2= "9877.18" />
  <line class="fil0 str0" x1="11737.54" y1="19740.99" x2="11294.49" y2= "19008.16" />
  <line class="fil0 str0" x1="9141.04" y1="18854.69" x2="10429.35" y2= "18486.85" />
  <line class="fil0 str0" x1="15527.12" y1="18388.19" x2="18073.75" y2= "17303.96" />
  <circle class="fil1 str0" cx="11069.4" cy="8378.2" r="291.95"/>
  <circle class="fil1 str0" cx="7609.06" cy="12559.04" r="291.95"/>
  <circle class="fil1 str0" cx="17638.22" cy="15713.22" r="291.95"/>
  <circle class="fil1 str0" cx="16674.47" cy="7847.3" r="291.95"/>
  <circle class="fil1 str0" cx="12874.61" cy="9894.09" r="291.95"/>
  <circle class="fil1 str0" cx="7896.24" cy="16810.95" r="291.95"/>
  <circle class="fil1 str0" cx="9284.61" cy="10201.07" r="291.95"/>
  <polyline class="fil0 str0" points="13994.89,5036.38 12378.99,3743.34 11977.72,1751.28 "/>
  <circle class="fil1 str0" cx="13069.24" cy="6482.6" r="291.95"/>
  <circle class="fil1 str0" cx="16182.14" cy="11843.43" r="291.95"/>
  <line class="fil0 str0" x1="8539.16" y1="6008.86" x2="8579.74" y2= "4518.71" />
  <line class="fil0 str0" x1="9110.39" y1="4235.05" x2="10280.1" y2= "3975.37" />
  <path class="fil0 str0" d="M15330.5 11831.57l1.31 -7.72c5.35,0 0.25,-2.84 3.85,-6.44 5.51,-5.51 7.73,-18.01 11.58,-21.88 1.05,-1.07 3.87,-8.99 3.87,-10.32 2.17,0 1.29,-0.02 1.29,-3.85 4.83,0 0.45,-12.46 10.3,-2.57 3.81,3.83 2.86,6.42 7.72,6.42"/>
  <path class="fil0 str0" d="M13538.64 19000.06c9.91,0 10.71,-1.28 20.6,-1.28 9.77,0 26.39,-3.17 36.04,-3.88 6.76,-0.48 48.37,0.74 51.5,0l2.57 -1.28c3.33,-0.78 29.27,-0.6 30.91,-1.28l2.57 -1.29c4.9,0 10.72,-5.16 14.17,-5.16 0,-3.71 1.26,-9.01 -2.59,-9.01 0,-1.52 -5.74,-6.42 -9.01,-6.42 -2.22,0 -2.57,-5.18 -2.57,3.85"/>
  <path class="fil0 str1" d="M9910.11 3065.59c58.34,-182.34 87.8,-345.3 113.28,-534.35 352.1,944.2 482.58,2032.75 -455.31,2680.62 -424.36,293.13 -646.69,421.32 -1028.92,797.01 -409.94,402.93 -748.36,843.46 -1063.89,1322.63 104.53,-1085.93 347.05,-2331.44 1320.97,-2975.55 585.28,-387.07 879.62,-595.89 1113.87,-1290.36z"/>
  <path class="fil2 str2" d="M11427.84 1418.77c137.82,36.81 664.97,496.77 786.12,598.11 286.16,239.32 685.76,668.45 891.47,970.66 342.46,503.09 613.8,969.16 777.85,1562.19 273.46,988.51 240.55,1892.91 42.53,2893.53 -135.78,686.08 -278.7,1340.01 -193.88,2086.18 68.24,600.29 208.79,983.41 477.4,1384.73 99.07,147.98 379.85,285.31 528.26,373.31 252.5,149.73 349.35,191.42 559.51,357.46 -3.5,-156.6 -345.26,-373.79 -462.02,-499.63 -48.73,-52.51 -71.23,-67.73 -118.39,-128.78l-230.86 -280.01c-43.4,-59.92 -64.6,-96.42 -103.06,-160.59 -128.77,-214.91 -210.67,-449.89 -275.44,-729.76 -340.52,-1471.12 486.21,-2561.23 255.18,-4572.71 -67.42,-586.96 -242.55,-1123.68 -451.75,-1575.17l-258.9 -482.66c-31.61,-54.98 -67.71,-99.3 -103.46,-160.18 -38,-64.66 -59.56,-87.88 -100.38,-146.83l-335.64 -438.86c-157,-180.04 -306.26,-353.97 -485.48,-519.74l-272.2 -238.66c-236.42,-235.11 -598.14,-474.44 -874.14,-658.4 -200.7,-133.79 -417.27,-279.93 -629.5,-392.23l241.48 796.71c788.08,3463.19 -1252.02,4728.19 -3400.14,6894.21 -1647.54,1661.28 -2410.03,3498.51 -2060.1,5847.51 634.56,3374.6 3366.8,5630.84 6737.49,5936.57 267.37,24.25 531.14,27.8 799.5,28.75 35.46,-47.24 13.15,-16.76 48.75,-64.48 158.26,-156.97 282.12,-342.79 430.22,-509.09 423,-474.98 123.48,-195.12 646.67,-424.47 334.48,-146.62 648.43,-312.18 937.42,-529.21l294.77 -249.04c278.21,-248.14 452.92,-470.02 666.29,-772.91 43.35,-61.54 84.38,-122.91 122.99,-187.57l5 -8.48c33.19,-57.58 53.55,-112.66 90.06,-173.62 41.56,-69.39 62.87,-108.7 94.24,-185.91 23.18,-57.11 53.33,-121.42 80.56,-183.09 690.49,-1563.89 258.73,-3490.55 -902.71,-4651.7 -345.59,-345.49 -793.93,-674.46 -1277.58,-881.19l-581.43 -209.56c-241.17,-68.82 -439.97,-99.94 -696.57,-127.37 -75.54,-8.07 -158.36,-7.18 -249.1,-14.56 -81.7,-6.65 -153.93,-25.49 -262.13,-13.21 -151.25,17.17 -337.9,23.24 -483.26,44.08 -365.85,52.48 -710.39,142.98 -1047.15,287.65 -539.02,231.56 -1047.11,565.1 -1434.24,1004.67 -225.38,255.9 -261.56,284.84 -472.02,599.1 -316.59,472.74 -508.19,977.9 -610.1,1548.66 -39.86,223.19 -74.84,500.15 -76.03,731.55 42.03,1964.54 1196.11,3352.73 3084.33,3870.5 123.57,33.88 224.45,56.89 350.77,77.25 65.05,9.34 210.61,29.56 292.34,32.54 180.66,6.62 234.13,8.5 531.43,-5.61 111.06,-18.2 222.1,-33.43 293.7,-48.62l164.68 -63.99c-1172.18,-39.84 -2112.19,-243.61 -3035.24,-975 -1095.11,-867.76 -1521.26,-2166.92 -1286.94,-3534.38 109.95,-641.59 359.47,-1185.5 742.43,-1708.85 123.34,-161.23 263.4,-323.54 416.13,-457.25l344.29 -298.4c199.05,-149.82 393.61,-265.67 624,-381.22 475.9,-238.7 1043.37,-398.99 1614.72,-395.72 1307.88,7.48 2184.03,518.61 2847.12,1174.21 169.08,167.17 312.31,362.86 449.03,556.19 289.55,409.47 496.6,927.7 588.74,1421.7 160.6,861.06 46.52,1757.24 -341.68,2533.4 -25.26,50.51 -54.08,117.48 -82.97,164.19 -34.37,63.9 -73.4,128.85 -109.38,191.75 -38.79,67.8 -85.02,131.36 -132.04,199.39 -90.12,130.42 -212.85,257.77 -333.22,397.11l-262.05 245.71 -358.24 275.91c-697.13,460.09 -1077.87,503.11 -1194.32,568.15l-239.79 271.87c-44.33,56.66 -68.59,77.6 -112.92,134.26 -35.89,45.85 -74.59,91.96 -112.58,134.61l-173.28 205.74c-33.5,43.99 -21.49,28.81 -53.18,78.66 -2816.39,-67.76 -5188.08,-1455.71 -6490.07,-3976.36 -1174.96,-2459 -756.62,-4975.1 1082.48,-6971.13 1629.75,-1768.83 3438.4,-2625.76 3941.73,-5230.26l31.14 -168.73 48.09 -316.22c50.82,-464.28 -22.63,-938.02 -108.84,-1369.5 -25.81,-129.16 -83.63,-278.62 -86.51,-407.86z"/>
  <path class="fil3 str2" d="M14542.37 9229.84c0,339.15 11.99,631.75 86.56,951.63 83.1,356.64 276.75,697.84 572.36,910.75 101.34,72.99 350.03,226.86 511.1,230.46 -55.47,-75.71 -214.07,-161.21 -287.26,-256.54 -207.34,-270.04 -304.17,-352.08 -439.93,-796.02 -284.47,-930.31 -19.4,-2137.51 280.16,-3036.35 328.35,-985.25 371.22,-1929.07 133.93,-2947.65 69.83,46.77 152.24,118.06 218.47,177.04l214.43 181.05c64.66,63.08 99.52,102.74 172.41,161.5 193.15,155.67 492.66,518.31 645.04,721.69 669.63,897.88 997.9,1794.58 1007.13,2918.96l0.14 25.44c0,1083.84 -299.14,1974.14 -609.91,2751.82 -123.34,308.7 -192.26,679.58 -231.93,1020.48 -30.71,263.92 -35.83,500.17 2.14,775.19 42.88,310.69 192.11,661.15 434.6,850.76 71.4,55.83 158.22,130.66 250.38,161.61 128.28,43.09 210.81,47.14 362.55,67.23 236.75,31.33 488.94,-97.5 618.74,-202.87 334.88,-294.87 467.2,-712.65 561.81,-1135.54 92.06,-433.08 196.58,-956.19 193.39,-1487.45 -0.84,-141.94 21.97,-238.87 17.24,-395.82 -2.55,-84.38 -17.46,-101.35 -17.57,-196.64 -0.57,-415.51 -50.06,-607.38 -81.85,-989.31 99.46,114.43 331.58,1078.99 353.11,1195.93 460.99,2655.72 -367.32,5116.83 -2255.44,7029.31 -732.68,742.12 -1490.29,1169.45 -2409.67,1634.73l-292.59 135.87c-270.13,117.54 -234.36,98.91 -522.98,221.92l-397.8 218.38c419.6,0 1321.49,-399.43 1732.93,-567.47 556.44,-301.78 1007.48,-517.75 1515.09,-909.98 1787.83,-1399.3 2989.87,-3688.41 3081.74,-5963.06 37.09,-918.77 -86.68,-1789.09 -337.03,-2671.99 -116.16,-394.72 -281.68,-777.86 -464.09,-1142.11 -114.48,-228.56 -686.34,-1242.16 -799.5,-1400.63l-27.71 -38.54c27.83,120.91 250.71,1029.42 299.77,1232.78 317.2,1276.21 401.94,2725.17 95.74,4024.06 -54.9,232.91 -132.39,518.17 -243.78,695.52 -127.52,203.08 -287.8,392.07 -563.71,392.07 -624.88,0 -807.48,-610.74 -807.48,-1153.52 0,-264 43.67,-506.71 89.28,-734.7 46.2,-231.05 99.96,-422.92 186.14,-637.8 162.82,-406.02 288.76,-789.39 403.58,-1244.31 305.61,-1223.22 244.61,-2646.44 -329.26,-3784.49 -135.02,-267.73 -296.98,-539.87 -475.59,-780.69 -277.94,-372.22 -624.06,-791.85 -985.2,-1083.55l-929.85 -718.04c-73.78,-54.56 -175.71,-110.38 -249.67,-162.29 18.08,46.42 33.69,107.01 51.38,162.83 304.76,961.92 451.55,1717.51 276.05,2768.28 -17.94,107.46 -48.99,251.7 -78.22,350.25l-296.88 988.48c-127.29,440.07 -232.49,1003.44 -232.49,1481.34z"/>
  <circle class="fil4 str0" cx="12378.99" cy="3743.34" r="291.95"/>
 </g>
</svg>
